<mxfile host="app.diagrams.net" modified="2022-11-22T09:04:48.800Z" agent="5.0 (Windows)" etag="Unlu6CPSKXblVutNieAs" version="20.5.3" type="github">
  <diagram id="J4lTsCqaWdvs94E4tDBU" name="Page-1">
    <mxGraphModel dx="1673" dy="852" grid="1" gridSize="10" guides="1" tooltips="1" connect="1" arrows="1" fold="1" page="1" pageScale="1" pageWidth="827" pageHeight="1169" math="0" shadow="0">
      <root>
        <mxCell id="0" />
        <mxCell id="1" parent="0" />
        <mxCell id="wo86FMuEZb9ytW6Cp0ga-16" value="" style="rounded=0;whiteSpace=wrap;html=1;fillColor=none;strokeColor=#b85450;strokeWidth=3;" parent="1" vertex="1">
          <mxGeometry x="280" y="330" width="600" height="60" as="geometry" />
        </mxCell>
        <mxCell id="wo86FMuEZb9ytW6Cp0ga-17" value="Architecture technique de production de média interactifs" style="rounded=0;whiteSpace=wrap;html=1;strokeWidth=3;fillColor=none;strokeColor=#b85450;" parent="1" vertex="1">
          <mxGeometry x="550" y="290" width="330" height="40" as="geometry" />
        </mxCell>
        <mxCell id="wo86FMuEZb9ytW6Cp0ga-26" value="Gibberish" style="rounded=0;whiteSpace=wrap;html=1;strokeWidth=1;fillColor=none;" parent="1" vertex="1">
          <mxGeometry y="530" width="120" height="60" as="geometry" />
        </mxCell>
        <mxCell id="wo86FMuEZb9ytW6Cp0ga-27" value="Processus de production de médias interactifs" style="rounded=0;whiteSpace=wrap;html=1;strokeWidth=1;fillColor=none;" parent="1" vertex="1">
          <mxGeometry x="130" y="330" width="120" height="60" as="geometry" />
        </mxCell>
        <mxCell id="wo86FMuEZb9ytW6Cp0ga-28" value="Processus de diffusion de médias interactifs" style="rounded=0;whiteSpace=wrap;html=1;strokeWidth=1;fillColor=none;" parent="1" vertex="1">
          <mxGeometry x="130" y="620" width="120" height="60" as="geometry" />
        </mxCell>
        <mxCell id="wo86FMuEZb9ytW6Cp0ga-29" value="" style="endArrow=classic;html=1;rounded=0;exitX=0.5;exitY=0;exitDx=0;exitDy=0;entryX=0;entryY=0.5;entryDx=0;entryDy=0;" parent="1" source="wo86FMuEZb9ytW6Cp0ga-26" target="wo86FMuEZb9ytW6Cp0ga-27" edge="1">
          <mxGeometry width="50" height="50" relative="1" as="geometry">
            <mxPoint x="450" y="570" as="sourcePoint" />
            <mxPoint x="80" y="360" as="targetPoint" />
            <Array as="points">
              <mxPoint x="60" y="360" />
            </Array>
          </mxGeometry>
        </mxCell>
        <mxCell id="wo86FMuEZb9ytW6Cp0ga-30" value="" style="endArrow=classic;html=1;rounded=0;exitX=1;exitY=0.5;exitDx=0;exitDy=0;" parent="1" source="wo86FMuEZb9ytW6Cp0ga-27" edge="1">
          <mxGeometry width="50" height="50" relative="1" as="geometry">
            <mxPoint x="450" y="570" as="sourcePoint" />
            <mxPoint x="280" y="360" as="targetPoint" />
          </mxGeometry>
        </mxCell>
        <mxCell id="wo86FMuEZb9ytW6Cp0ga-31" value="" style="endArrow=classic;html=1;rounded=0;exitX=0.5;exitY=1;exitDx=0;exitDy=0;entryX=0;entryY=0.5;entryDx=0;entryDy=0;" parent="1" source="wo86FMuEZb9ytW6Cp0ga-26" target="wo86FMuEZb9ytW6Cp0ga-28" edge="1">
          <mxGeometry width="50" height="50" relative="1" as="geometry">
            <mxPoint x="60" y="880" as="sourcePoint" />
            <mxPoint x="160" y="710" as="targetPoint" />
            <Array as="points">
              <mxPoint x="60" y="650" />
            </Array>
          </mxGeometry>
        </mxCell>
        <mxCell id="SsCDJ0o37DeABF8u1zy4-1" value="API passerelle" style="rounded=1;whiteSpace=wrap;html=1;" parent="1" vertex="1">
          <mxGeometry x="602.5" y="680" width="260" height="60" as="geometry" />
        </mxCell>
        <mxCell id="SsCDJ0o37DeABF8u1zy4-2" value="Registre de service" style="rounded=1;whiteSpace=wrap;html=1;" parent="1" vertex="1">
          <mxGeometry x="960" y="680" width="120" height="60" as="geometry" />
        </mxCell>
        <mxCell id="SsCDJ0o37DeABF8u1zy4-15" value="Front - end" style="rounded=1;whiteSpace=wrap;html=1;" parent="1" vertex="1">
          <mxGeometry x="602.5" y="604" width="260" height="60" as="geometry" />
        </mxCell>
        <mxCell id="SsCDJ0o37DeABF8u1zy4-16" value="" style="endArrow=classic;html=1;rounded=0;entryX=0.5;entryY=0;entryDx=0;entryDy=0;exitX=0.5;exitY=1;exitDx=0;exitDy=0;" parent="1" source="SsCDJ0o37DeABF8u1zy4-15" target="SsCDJ0o37DeABF8u1zy4-1" edge="1">
          <mxGeometry width="50" height="50" relative="1" as="geometry">
            <mxPoint x="634" y="870" as="sourcePoint" />
            <mxPoint x="684" y="820" as="targetPoint" />
          </mxGeometry>
        </mxCell>
        <mxCell id="SsCDJ0o37DeABF8u1zy4-17" value="" style="endArrow=classic;html=1;rounded=0;entryX=0;entryY=0.5;entryDx=0;entryDy=0;exitX=1;exitY=0.5;exitDx=0;exitDy=0;" parent="1" source="SsCDJ0o37DeABF8u1zy4-1" target="SsCDJ0o37DeABF8u1zy4-2" edge="1">
          <mxGeometry width="50" height="50" relative="1" as="geometry">
            <mxPoint x="724" y="754.5" as="sourcePoint" />
            <mxPoint x="684" y="924.5" as="targetPoint" />
          </mxGeometry>
        </mxCell>
        <mxCell id="SsCDJ0o37DeABF8u1zy4-28" value="" style="endArrow=classic;html=1;rounded=0;entryX=0.5;entryY=0;entryDx=0;entryDy=0;exitX=0.5;exitY=1;exitDx=0;exitDy=0;" parent="1" edge="1">
          <mxGeometry width="50" height="50" relative="1" as="geometry">
            <mxPoint x="1014" y="870" as="sourcePoint" />
            <mxPoint x="1434" y="820" as="targetPoint" />
          </mxGeometry>
        </mxCell>
        <mxCell id="SsCDJ0o37DeABF8u1zy4-29" value="" style="endArrow=classic;html=1;rounded=0;entryX=0.5;entryY=0;entryDx=0;entryDy=0;exitX=0.5;exitY=1;exitDx=0;exitDy=0;" parent="1" edge="1">
          <mxGeometry width="50" height="50" relative="1" as="geometry">
            <mxPoint x="1154" y="870" as="sourcePoint" />
            <mxPoint x="1131" y="997" as="targetPoint" />
          </mxGeometry>
        </mxCell>
        <mxCell id="SsCDJ0o37DeABF8u1zy4-42" value="" style="endArrow=classic;html=1;rounded=0;entryX=0.5;entryY=0;entryDx=0;entryDy=0;exitX=0.5;exitY=1;exitDx=0;exitDy=0;" parent="1" edge="1">
          <mxGeometry width="50" height="50" relative="1" as="geometry">
            <mxPoint x="869" y="870" as="sourcePoint" />
            <mxPoint x="1109" y="850" as="targetPoint" />
          </mxGeometry>
        </mxCell>
        <mxCell id="xsgijD-SskbSGqHChYv_-3" value="" style="endArrow=classic;html=1;rounded=0;entryX=0.5;entryY=0;entryDx=0;entryDy=0;exitX=0.5;exitY=1;exitDx=0;exitDy=0;fillColor=#dae8fc;strokeColor=#6c8ebf;strokeWidth=2;" parent="1" source="SsCDJ0o37DeABF8u1zy4-1" target="xsgijD-SskbSGqHChYv_-1" edge="1">
          <mxGeometry width="50" height="50" relative="1" as="geometry">
            <mxPoint x="560" y="730" as="sourcePoint" />
            <mxPoint x="610" y="680" as="targetPoint" />
          </mxGeometry>
        </mxCell>
        <mxCell id="xsgijD-SskbSGqHChYv_-5" value="" style="endArrow=classic;html=1;rounded=0;entryX=0.5;entryY=0;entryDx=0;entryDy=0;exitX=0.5;exitY=1;exitDx=0;exitDy=0;fillColor=#dae8fc;strokeColor=#6c8ebf;strokeWidth=2;" parent="1" source="SsCDJ0o37DeABF8u1zy4-1" target="8kNqF_XKGNWwcD94ysNi-12" edge="1">
          <mxGeometry width="50" height="50" relative="1" as="geometry">
            <mxPoint x="875" y="720" as="sourcePoint" />
            <mxPoint x="721.5" y="780" as="targetPoint" />
          </mxGeometry>
        </mxCell>
        <mxCell id="xsgijD-SskbSGqHChYv_-7" value="" style="endArrow=classic;html=1;rounded=0;entryX=0.5;entryY=0;entryDx=0;entryDy=0;exitX=0.5;exitY=1;exitDx=0;exitDy=0;fillColor=#dae8fc;strokeColor=#6c8ebf;strokeWidth=2;" parent="1" source="SsCDJ0o37DeABF8u1zy4-1" target="8kNqF_XKGNWwcD94ysNi-21" edge="1">
          <mxGeometry width="50" height="50" relative="1" as="geometry">
            <mxPoint x="1030" y="730" as="sourcePoint" />
            <mxPoint x="866.5" y="780" as="targetPoint" />
          </mxGeometry>
        </mxCell>
        <mxCell id="xsgijD-SskbSGqHChYv_-9" value="" style="endArrow=classic;html=1;rounded=0;entryX=0.5;entryY=0;entryDx=0;entryDy=0;exitX=0.5;exitY=1;exitDx=0;exitDy=0;fillColor=#dae8fc;strokeColor=#6c8ebf;strokeWidth=2;" parent="1" source="SsCDJ0o37DeABF8u1zy4-1" target="8kNqF_XKGNWwcD94ysNi-26" edge="1">
          <mxGeometry width="50" height="50" relative="1" as="geometry">
            <mxPoint x="1182" y="730" as="sourcePoint" />
            <mxPoint x="1012.5" y="780" as="targetPoint" />
          </mxGeometry>
        </mxCell>
        <mxCell id="xsgijD-SskbSGqHChYv_-11" value="" style="endArrow=classic;html=1;rounded=0;entryX=0.5;entryY=0;entryDx=0;entryDy=0;exitX=0.5;exitY=1;exitDx=0;exitDy=0;fillColor=#dae8fc;strokeColor=#6c8ebf;strokeWidth=2;" parent="1" source="SsCDJ0o37DeABF8u1zy4-1" target="8kNqF_XKGNWwcD94ysNi-35" edge="1">
          <mxGeometry width="50" height="50" relative="1" as="geometry">
            <mxPoint x="1325" y="730" as="sourcePoint" />
            <mxPoint x="1154" y="780" as="targetPoint" />
          </mxGeometry>
        </mxCell>
        <mxCell id="xsgijD-SskbSGqHChYv_-13" value="Communication JSON/ HTTPS" style="text;html=1;strokeColor=#6c8ebf;fillColor=#dae8fc;align=center;verticalAlign=middle;whiteSpace=wrap;rounded=0;" parent="1" vertex="1">
          <mxGeometry x="320" y="760" width="210" height="30" as="geometry" />
        </mxCell>
        <mxCell id="xsgijD-SskbSGqHChYv_-15" value="" style="endArrow=classic;html=1;rounded=0;exitX=1;exitY=0.5;exitDx=0;exitDy=0;" parent="1" source="wo86FMuEZb9ytW6Cp0ga-28" edge="1">
          <mxGeometry width="50" height="50" relative="1" as="geometry">
            <mxPoint x="560" y="850" as="sourcePoint" />
            <mxPoint x="280" y="650" as="targetPoint" />
          </mxGeometry>
        </mxCell>
        <mxCell id="xsgijD-SskbSGqHChYv_-18" value="Processus hérités" style="rounded=0;whiteSpace=wrap;html=1;strokeWidth=1;fillColor=none;" parent="1" vertex="1">
          <mxGeometry x="127" y="210" width="120" height="60" as="geometry" />
        </mxCell>
        <mxCell id="xsgijD-SskbSGqHChYv_-19" value="" style="endArrow=classic;html=1;rounded=0;entryX=0;entryY=0.5;entryDx=0;entryDy=0;" parent="1" target="xsgijD-SskbSGqHChYv_-18" edge="1">
          <mxGeometry width="50" height="50" relative="1" as="geometry">
            <mxPoint x="50" y="680" as="sourcePoint" />
            <mxPoint x="120" y="240" as="targetPoint" />
            <Array as="points">
              <mxPoint x="50" y="240" />
            </Array>
          </mxGeometry>
        </mxCell>
        <mxCell id="xsgijD-SskbSGqHChYv_-20" value="" style="endArrow=classic;html=1;rounded=0;exitX=1;exitY=0.5;exitDx=0;exitDy=0;" parent="1" source="xsgijD-SskbSGqHChYv_-18" edge="1">
          <mxGeometry width="50" height="50" relative="1" as="geometry">
            <mxPoint x="639" y="530" as="sourcePoint" />
            <mxPoint x="279" y="240" as="targetPoint" />
          </mxGeometry>
        </mxCell>
        <mxCell id="xsgijD-SskbSGqHChYv_-21" value="Architectures techniques héritées" style="rounded=0;whiteSpace=wrap;html=1;fillColor=none;strokeColor=#82b366;strokeWidth=3;" parent="1" vertex="1">
          <mxGeometry x="279" y="210" width="660" height="60" as="geometry" />
        </mxCell>
        <mxCell id="8kNqF_XKGNWwcD94ysNi-6" value="" style="group" parent="1" vertex="1" connectable="0">
          <mxGeometry x="320" y="800" width="220" height="280" as="geometry" />
        </mxCell>
        <mxCell id="8kNqF_XKGNWwcD94ysNi-2" value="" style="rounded=0;whiteSpace=wrap;html=1;fillColor=none;strokeColor=#9673a6;strokeWidth=3;" parent="8kNqF_XKGNWwcD94ysNi-6" vertex="1">
          <mxGeometry width="220" height="250" as="geometry" />
        </mxCell>
        <mxCell id="SsCDJ0o37DeABF8u1zy4-5" value="&lt;div&gt;&lt;b&gt;Spring boot 2.7 + Java 17&lt;br&gt;&lt;/b&gt;(Micro service d&#39;authentification)&lt;/div&gt;" style="rounded=1;whiteSpace=wrap;html=1;" parent="8kNqF_XKGNWwcD94ysNi-6" vertex="1">
          <mxGeometry x="21" y="60" width="185" height="60" as="geometry" />
        </mxCell>
        <mxCell id="SsCDJ0o37DeABF8u1zy4-12" value="Serveur de base de données des credentials utilisateurs" style="shape=datastore;whiteSpace=wrap;html=1;fillColor=none;strokeColor=#b85450;" parent="8kNqF_XKGNWwcD94ysNi-6" vertex="1">
          <mxGeometry x="80" y="140" width="130" height="90" as="geometry" />
        </mxCell>
        <mxCell id="SsCDJ0o37DeABF8u1zy4-18" value="" style="endArrow=classic;html=1;rounded=0;entryX=0.5;entryY=0;entryDx=0;entryDy=0;exitX=0.67;exitY=1;exitDx=0;exitDy=0;exitPerimeter=0;" parent="8kNqF_XKGNWwcD94ysNi-6" source="SsCDJ0o37DeABF8u1zy4-5" target="xsgijD-SskbSGqHChYv_-14" edge="1">
          <mxGeometry width="50" height="50" relative="1" as="geometry">
            <mxPoint x="146.95000000000005" y="121" as="sourcePoint" />
            <mxPoint x="148" y="138" as="targetPoint" />
          </mxGeometry>
        </mxCell>
        <mxCell id="xsgijD-SskbSGqHChYv_-1" value="API REST" style="rounded=0;whiteSpace=wrap;html=1;fillColor=#d5e8d4;strokeColor=#82b366;" parent="8kNqF_XKGNWwcD94ysNi-6" vertex="1">
          <mxGeometry x="56" y="30" width="115" height="30" as="geometry" />
        </mxCell>
        <mxCell id="xsgijD-SskbSGqHChYv_-14" value="&lt;b&gt;Oracle 19&lt;/b&gt; (SQL)" style="rounded=0;whiteSpace=wrap;html=1;fillColor=#f8cecc;strokeColor=#b85450;" parent="8kNqF_XKGNWwcD94ysNi-6" vertex="1">
          <mxGeometry x="110" y="140" width="70" height="35" as="geometry" />
        </mxCell>
        <mxCell id="8kNqF_XKGNWwcD94ysNi-3" value="Conteneur Docker" style="rounded=0;whiteSpace=wrap;html=1;strokeWidth=3;fillColor=#e1d5e7;strokeColor=#9673a6;" parent="8kNqF_XKGNWwcD94ysNi-6" vertex="1">
          <mxGeometry x="100" y="250" width="120" height="30" as="geometry" />
        </mxCell>
        <mxCell id="8kNqF_XKGNWwcD94ysNi-5" value="Port 8082" style="rounded=0;whiteSpace=wrap;html=1;strokeWidth=3;fillColor=#e1d5e7;strokeColor=#9673a6;" parent="8kNqF_XKGNWwcD94ysNi-6" vertex="1">
          <mxGeometry x="10" y="210" width="60" height="30" as="geometry" />
        </mxCell>
        <mxCell id="8kNqF_XKGNWwcD94ysNi-7" value="" style="group" parent="1" vertex="1" connectable="0">
          <mxGeometry x="550" y="800" width="220" height="280" as="geometry" />
        </mxCell>
        <mxCell id="8kNqF_XKGNWwcD94ysNi-8" value="" style="rounded=0;whiteSpace=wrap;html=1;fillColor=none;strokeColor=#9673a6;strokeWidth=3;" parent="8kNqF_XKGNWwcD94ysNi-7" vertex="1">
          <mxGeometry width="220" height="250" as="geometry" />
        </mxCell>
        <mxCell id="8kNqF_XKGNWwcD94ysNi-9" value="&lt;div&gt;&lt;b&gt;Spring boot 2.7 + Java 17&lt;br&gt;&lt;/b&gt;(Micro service de gestion des utilisateurs)&lt;/div&gt;" style="rounded=1;whiteSpace=wrap;html=1;" parent="8kNqF_XKGNWwcD94ysNi-7" vertex="1">
          <mxGeometry x="21" y="60" width="185" height="60" as="geometry" />
        </mxCell>
        <mxCell id="8kNqF_XKGNWwcD94ysNi-10" value="Serveur de base de données gestion des utilisateurs" style="shape=datastore;whiteSpace=wrap;html=1;fillColor=none;strokeColor=#b85450;" parent="8kNqF_XKGNWwcD94ysNi-7" vertex="1">
          <mxGeometry x="80" y="140" width="130" height="90" as="geometry" />
        </mxCell>
        <mxCell id="8kNqF_XKGNWwcD94ysNi-11" value="" style="endArrow=classic;html=1;rounded=0;entryX=0.5;entryY=0;entryDx=0;entryDy=0;exitX=0.67;exitY=1;exitDx=0;exitDy=0;exitPerimeter=0;" parent="8kNqF_XKGNWwcD94ysNi-7" source="8kNqF_XKGNWwcD94ysNi-9" target="8kNqF_XKGNWwcD94ysNi-13" edge="1">
          <mxGeometry width="50" height="50" relative="1" as="geometry">
            <mxPoint x="146.95000000000005" y="121" as="sourcePoint" />
            <mxPoint x="148" y="138" as="targetPoint" />
          </mxGeometry>
        </mxCell>
        <mxCell id="8kNqF_XKGNWwcD94ysNi-12" value="API REST" style="rounded=0;whiteSpace=wrap;html=1;fillColor=#d5e8d4;strokeColor=#82b366;" parent="8kNqF_XKGNWwcD94ysNi-7" vertex="1">
          <mxGeometry x="56" y="30" width="115" height="30" as="geometry" />
        </mxCell>
        <mxCell id="8kNqF_XKGNWwcD94ysNi-13" value="&lt;b&gt;Oracle 19&lt;/b&gt; (SQL)" style="rounded=0;whiteSpace=wrap;html=1;fillColor=#f8cecc;strokeColor=#b85450;" parent="8kNqF_XKGNWwcD94ysNi-7" vertex="1">
          <mxGeometry x="110" y="140" width="70" height="35" as="geometry" />
        </mxCell>
        <mxCell id="8kNqF_XKGNWwcD94ysNi-14" value="Conteneur Docker" style="rounded=0;whiteSpace=wrap;html=1;strokeWidth=3;fillColor=#e1d5e7;strokeColor=#9673a6;" parent="8kNqF_XKGNWwcD94ysNi-7" vertex="1">
          <mxGeometry x="100" y="250" width="120" height="30" as="geometry" />
        </mxCell>
        <mxCell id="8kNqF_XKGNWwcD94ysNi-15" value="Port 8083" style="rounded=0;whiteSpace=wrap;html=1;strokeWidth=3;fillColor=#e1d5e7;strokeColor=#9673a6;" parent="8kNqF_XKGNWwcD94ysNi-7" vertex="1">
          <mxGeometry x="10" y="210" width="60" height="30" as="geometry" />
        </mxCell>
        <mxCell id="8kNqF_XKGNWwcD94ysNi-16" value="" style="group" parent="1" vertex="1" connectable="0">
          <mxGeometry x="780" y="800" width="220" height="280" as="geometry" />
        </mxCell>
        <mxCell id="8kNqF_XKGNWwcD94ysNi-17" value="" style="rounded=0;whiteSpace=wrap;html=1;fillColor=none;strokeColor=#9673a6;strokeWidth=3;" parent="8kNqF_XKGNWwcD94ysNi-16" vertex="1">
          <mxGeometry width="220" height="250" as="geometry" />
        </mxCell>
        <mxCell id="8kNqF_XKGNWwcD94ysNi-18" value="&lt;div&gt;&lt;b&gt;Spring boot 2.7 + Java 17&lt;br&gt;&lt;/b&gt;(Micro service des préférences utilisateurs)&lt;/div&gt;" style="rounded=1;whiteSpace=wrap;html=1;" parent="8kNqF_XKGNWwcD94ysNi-16" vertex="1">
          <mxGeometry x="21" y="60" width="185" height="60" as="geometry" />
        </mxCell>
        <mxCell id="8kNqF_XKGNWwcD94ysNi-19" value="Serveur de base de données des préférences utilisateurs" style="shape=datastore;whiteSpace=wrap;html=1;fillColor=none;strokeColor=#b85450;" parent="8kNqF_XKGNWwcD94ysNi-16" vertex="1">
          <mxGeometry x="80" y="140" width="140" height="90" as="geometry" />
        </mxCell>
        <mxCell id="8kNqF_XKGNWwcD94ysNi-20" value="" style="endArrow=classic;html=1;rounded=0;entryX=0.5;entryY=0;entryDx=0;entryDy=0;exitX=0.67;exitY=1;exitDx=0;exitDy=0;exitPerimeter=0;" parent="8kNqF_XKGNWwcD94ysNi-16" source="8kNqF_XKGNWwcD94ysNi-18" target="8kNqF_XKGNWwcD94ysNi-22" edge="1">
          <mxGeometry width="50" height="50" relative="1" as="geometry">
            <mxPoint x="146.95000000000005" y="121" as="sourcePoint" />
            <mxPoint x="148" y="138" as="targetPoint" />
          </mxGeometry>
        </mxCell>
        <mxCell id="8kNqF_XKGNWwcD94ysNi-21" value="API REST" style="rounded=0;whiteSpace=wrap;html=1;fillColor=#d5e8d4;strokeColor=#82b366;" parent="8kNqF_XKGNWwcD94ysNi-16" vertex="1">
          <mxGeometry x="56" y="30" width="115" height="30" as="geometry" />
        </mxCell>
        <mxCell id="8kNqF_XKGNWwcD94ysNi-22" value="&lt;b&gt;Oracle 19&lt;/b&gt; (SQL)" style="rounded=0;whiteSpace=wrap;html=1;fillColor=#f8cecc;strokeColor=#b85450;" parent="8kNqF_XKGNWwcD94ysNi-16" vertex="1">
          <mxGeometry x="110" y="140" width="70" height="35" as="geometry" />
        </mxCell>
        <mxCell id="8kNqF_XKGNWwcD94ysNi-23" value="Conteneur Docker" style="rounded=0;whiteSpace=wrap;html=1;strokeWidth=3;fillColor=#e1d5e7;strokeColor=#9673a6;" parent="8kNqF_XKGNWwcD94ysNi-16" vertex="1">
          <mxGeometry x="100" y="250" width="120" height="30" as="geometry" />
        </mxCell>
        <mxCell id="8kNqF_XKGNWwcD94ysNi-24" value="Port 8084" style="rounded=0;whiteSpace=wrap;html=1;strokeWidth=3;fillColor=#e1d5e7;strokeColor=#9673a6;" parent="8kNqF_XKGNWwcD94ysNi-16" vertex="1">
          <mxGeometry x="10" y="210" width="60" height="30" as="geometry" />
        </mxCell>
        <mxCell id="8kNqF_XKGNWwcD94ysNi-25" value="" style="group" parent="1" vertex="1" connectable="0">
          <mxGeometry x="1010" y="800" width="220" height="280" as="geometry" />
        </mxCell>
        <mxCell id="8kNqF_XKGNWwcD94ysNi-26" value="" style="rounded=0;whiteSpace=wrap;html=1;fillColor=none;strokeColor=#9673a6;strokeWidth=3;" parent="8kNqF_XKGNWwcD94ysNi-25" vertex="1">
          <mxGeometry width="220" height="250" as="geometry" />
        </mxCell>
        <mxCell id="8kNqF_XKGNWwcD94ysNi-27" value="&lt;div&gt;&lt;b&gt;Spring boot 2.7 + Java 17&lt;br&gt;&lt;/b&gt;(Micro service de gestion d&#39;audio)&lt;/div&gt;" style="rounded=1;whiteSpace=wrap;html=1;" parent="8kNqF_XKGNWwcD94ysNi-25" vertex="1">
          <mxGeometry x="21" y="60" width="185" height="60" as="geometry" />
        </mxCell>
        <mxCell id="8kNqF_XKGNWwcD94ysNi-28" value="Serveur de base de données de gestion d&#39;audio" style="shape=datastore;whiteSpace=wrap;html=1;fillColor=none;strokeColor=#b85450;" parent="8kNqF_XKGNWwcD94ysNi-25" vertex="1">
          <mxGeometry x="80" y="140" width="130" height="90" as="geometry" />
        </mxCell>
        <mxCell id="8kNqF_XKGNWwcD94ysNi-29" value="" style="endArrow=classic;html=1;rounded=0;entryX=0.5;entryY=0;entryDx=0;entryDy=0;exitX=0.67;exitY=1;exitDx=0;exitDy=0;exitPerimeter=0;" parent="8kNqF_XKGNWwcD94ysNi-25" source="8kNqF_XKGNWwcD94ysNi-27" target="8kNqF_XKGNWwcD94ysNi-31" edge="1">
          <mxGeometry width="50" height="50" relative="1" as="geometry">
            <mxPoint x="146.95000000000005" y="121" as="sourcePoint" />
            <mxPoint x="148" y="138" as="targetPoint" />
          </mxGeometry>
        </mxCell>
        <mxCell id="8kNqF_XKGNWwcD94ysNi-30" value="API REST" style="rounded=0;whiteSpace=wrap;html=1;fillColor=#d5e8d4;strokeColor=#82b366;" parent="8kNqF_XKGNWwcD94ysNi-25" vertex="1">
          <mxGeometry x="56" y="30" width="115" height="30" as="geometry" />
        </mxCell>
        <mxCell id="8kNqF_XKGNWwcD94ysNi-31" value="&lt;b&gt;Oracle 19&lt;/b&gt; (SQL)" style="rounded=0;whiteSpace=wrap;html=1;fillColor=#f8cecc;strokeColor=#b85450;" parent="8kNqF_XKGNWwcD94ysNi-25" vertex="1">
          <mxGeometry x="110" y="140" width="70" height="35" as="geometry" />
        </mxCell>
        <mxCell id="8kNqF_XKGNWwcD94ysNi-32" value="Conteneur Docker" style="rounded=0;whiteSpace=wrap;html=1;strokeWidth=3;fillColor=#e1d5e7;strokeColor=#9673a6;" parent="8kNqF_XKGNWwcD94ysNi-25" vertex="1">
          <mxGeometry x="100" y="250" width="120" height="30" as="geometry" />
        </mxCell>
        <mxCell id="8kNqF_XKGNWwcD94ysNi-33" value="Port 8085" style="rounded=0;whiteSpace=wrap;html=1;strokeWidth=3;fillColor=#e1d5e7;strokeColor=#9673a6;" parent="8kNqF_XKGNWwcD94ysNi-25" vertex="1">
          <mxGeometry x="10" y="210" width="60" height="30" as="geometry" />
        </mxCell>
        <mxCell id="8kNqF_XKGNWwcD94ysNi-34" value="" style="group" parent="1" vertex="1" connectable="0">
          <mxGeometry x="1250" y="800" width="220" height="280" as="geometry" />
        </mxCell>
        <mxCell id="8kNqF_XKGNWwcD94ysNi-35" value="" style="rounded=0;whiteSpace=wrap;html=1;fillColor=none;strokeColor=#9673a6;strokeWidth=3;" parent="8kNqF_XKGNWwcD94ysNi-34" vertex="1">
          <mxGeometry width="220" height="250" as="geometry" />
        </mxCell>
        <mxCell id="8kNqF_XKGNWwcD94ysNi-36" value="&lt;div&gt;&lt;b&gt;Spring boot 2.7 + Java 17&lt;br&gt;&lt;/b&gt;(Micro service de gestion de vidéo)&lt;/div&gt;" style="rounded=1;whiteSpace=wrap;html=1;" parent="8kNqF_XKGNWwcD94ysNi-34" vertex="1">
          <mxGeometry x="21" y="60" width="185" height="60" as="geometry" />
        </mxCell>
        <mxCell id="8kNqF_XKGNWwcD94ysNi-37" value="Serveur de base de données de gestion de vidéo" style="shape=datastore;whiteSpace=wrap;html=1;fillColor=none;strokeColor=#b85450;" parent="8kNqF_XKGNWwcD94ysNi-34" vertex="1">
          <mxGeometry x="80" y="140" width="130" height="90" as="geometry" />
        </mxCell>
        <mxCell id="8kNqF_XKGNWwcD94ysNi-38" value="" style="endArrow=classic;html=1;rounded=0;entryX=0.5;entryY=0;entryDx=0;entryDy=0;exitX=0.67;exitY=1;exitDx=0;exitDy=0;exitPerimeter=0;" parent="8kNqF_XKGNWwcD94ysNi-34" source="8kNqF_XKGNWwcD94ysNi-36" target="8kNqF_XKGNWwcD94ysNi-40" edge="1">
          <mxGeometry width="50" height="50" relative="1" as="geometry">
            <mxPoint x="146.95000000000005" y="121" as="sourcePoint" />
            <mxPoint x="148" y="138" as="targetPoint" />
          </mxGeometry>
        </mxCell>
        <mxCell id="8kNqF_XKGNWwcD94ysNi-39" value="API REST" style="rounded=0;whiteSpace=wrap;html=1;fillColor=#d5e8d4;strokeColor=#82b366;" parent="8kNqF_XKGNWwcD94ysNi-34" vertex="1">
          <mxGeometry x="56" y="30" width="115" height="30" as="geometry" />
        </mxCell>
        <mxCell id="8kNqF_XKGNWwcD94ysNi-40" value="&lt;b&gt;Oracle 19&lt;/b&gt; (SQL)" style="rounded=0;whiteSpace=wrap;html=1;fillColor=#f8cecc;strokeColor=#b85450;" parent="8kNqF_XKGNWwcD94ysNi-34" vertex="1">
          <mxGeometry x="110" y="140" width="70" height="35" as="geometry" />
        </mxCell>
        <mxCell id="8kNqF_XKGNWwcD94ysNi-41" value="Conteneur Docker" style="rounded=0;whiteSpace=wrap;html=1;strokeWidth=3;fillColor=#e1d5e7;strokeColor=#9673a6;" parent="8kNqF_XKGNWwcD94ysNi-34" vertex="1">
          <mxGeometry x="100" y="250" width="120" height="30" as="geometry" />
        </mxCell>
        <mxCell id="8kNqF_XKGNWwcD94ysNi-42" value="Port 8086" style="rounded=0;whiteSpace=wrap;html=1;strokeWidth=3;fillColor=#e1d5e7;strokeColor=#9673a6;" parent="8kNqF_XKGNWwcD94ysNi-34" vertex="1">
          <mxGeometry x="10" y="210" width="60" height="30" as="geometry" />
        </mxCell>
        <mxCell id="8kNqF_XKGNWwcD94ysNi-43" value="" style="rounded=0;whiteSpace=wrap;html=1;strokeWidth=3;fillColor=none;strokeColor=#9673a6;" parent="1" vertex="1">
          <mxGeometry x="320" y="675" width="770" height="70" as="geometry" />
        </mxCell>
        <mxCell id="8kNqF_XKGNWwcD94ysNi-44" value="Conteneur Docker" style="rounded=0;whiteSpace=wrap;html=1;strokeWidth=3;fillColor=#e1d5e7;strokeColor=#9673a6;" parent="1" vertex="1">
          <mxGeometry x="320" y="645" width="120" height="30" as="geometry" />
        </mxCell>
        <mxCell id="8kNqF_XKGNWwcD94ysNi-45" value="Port 8081" style="rounded=0;whiteSpace=wrap;html=1;strokeWidth=3;fillColor=#e1d5e7;strokeColor=#9673a6;" parent="1" vertex="1">
          <mxGeometry x="328" y="707" width="60" height="30" as="geometry" />
        </mxCell>
        <mxCell id="_FSysQC6U6rYsHptcgnh-10" value="Architecture technique de production de documentaire, d&#39;animation et de vidéos de marques / commerciales " style="rounded=0;whiteSpace=wrap;html=1;strokeWidth=3;fillColor=none;strokeColor=#82b366;" vertex="1" parent="1">
          <mxGeometry x="319" y="170" width="620" height="40" as="geometry" />
        </mxCell>
        <mxCell id="_FSysQC6U6rYsHptcgnh-12" value="Client lourd en C++ /C" style="text;html=1;strokeColor=none;fillColor=none;align=center;verticalAlign=middle;whiteSpace=wrap;rounded=0;" vertex="1" parent="1">
          <mxGeometry x="415" y="345" width="330" height="30" as="geometry" />
        </mxCell>
        <mxCell id="_FSysQC6U6rYsHptcgnh-13" value="" style="rounded=0;whiteSpace=wrap;html=1;fillColor=none;strokeColor=#b85450;strokeWidth=3;" vertex="1" parent="1">
          <mxGeometry x="279" y="600" width="1211" height="500" as="geometry" />
        </mxCell>
        <mxCell id="_FSysQC6U6rYsHptcgnh-14" value="Architecture technique de diffusion de média interactifs" style="rounded=0;whiteSpace=wrap;html=1;strokeWidth=3;fillColor=none;strokeColor=#b85450;" vertex="1" parent="1">
          <mxGeometry x="1160" y="560" width="330" height="40" as="geometry" />
        </mxCell>
      </root>
    </mxGraphModel>
  </diagram>
</mxfile>
